<?xml version="1.0" encoding="utf-8"?>
<!-- Generator: Adobe Illustrator 19.0.0, SVG Export Plug-In . SVG Version: 6.00 Build 0)  -->
<svg version="1.1" id="Layer_1" xmlns="http://www.w3.org/2000/svg" xmlns:xlink="http://www.w3.org/1999/xlink" x="0px" y="0px"
	 viewBox="1375 16.9 3345 808" style="enable-background:new 1375 16.9 3345 808;" xml:space="preserve">
<style type="text/css">
	.st0{display:none;}
	.st1{display:inline;fill:#FF25FF;}
	.st2{fill:#FFFFFF;}
	.st3{font-family:'Poppins-SemiBold';}
	.st4{font-size:392.2037px;}
	.st5{fill:#CE8D2D;}
	.st6{font-family:'Poppins-ExtraBold';}
	.st7{font-size:110.0111px;}
	.st8{letter-spacing:16;}
	.st9{fill:url(#XMLID_10_);}
	.st10{fill:url(#XMLID_14_);}
	.st11{fill:url(#XMLID_15_);}
	.st12{fill:url(#XMLID_16_);}
	.st13{fill:url(#XMLID_17_);}
	.st14{clip-path:url(#SVGID_2_);}
	.st15{clip-path:url(#SVGID_4_);}
</style>
<g id="Layer_2" class="st0">
	<rect x="4080" y="5.6" class="st1" width="3442" height="1028"/>
</g>
<g id="XMLID_11_">
	<text transform="matrix(1 0 0 1 2105.7244 505.4478)" class="st2 st3 st4">Mobitel</text>
	<text transform="matrix(1 0 0 1 3586.6243 505.4478)" class="st5 st6 st4">BA</text>
	<text id="XMLID_12_" transform="matrix(1 0 0 1 2107.3484 651.1169)" class="st5 st3 st7 st8">Svijet elektronike na jednom mjestu</text>
</g>
<g id="XMLID_2_">
	<g id="XMLID_3_">
		
			<radialGradient id="XMLID_10_" cx="1767.8544" cy="507.9755" r="169.6952" gradientTransform="matrix(1 0 0 3 0 -1015.9509)" gradientUnits="userSpaceOnUse">
			<stop  offset="0" style="stop-color:#EAD070"/>
			<stop  offset="1" style="stop-color:#BA7D2D"/>
		</radialGradient>
		<path id="XMLID_4_" class="st9" d="M1862.3,321.8l-185.4-30.1c-6.6-1.1-12.7,4-12.7,10.8v415c21.1,4.6,43,7,65.5,7
			c51.1,0,99.2-12.3,141.7-34.1V332.5C1871.5,327.2,1867.6,322.6,1862.3,321.8z"/>
		<linearGradient id="XMLID_14_" gradientUnits="userSpaceOnUse" x1="1733.2429" y1="539.8484" x2="1733.2429" y2="-158.0329">
			<stop  offset="0" style="stop-color:#EAD070"/>
			<stop  offset="0.2271" style="stop-color:#E8CC6D"/>
			<stop  offset="0.4437" style="stop-color:#E1C164"/>
			<stop  offset="0.6562" style="stop-color:#D6AD54"/>
			<stop  offset="0.8649" style="stop-color:#C7933E"/>
			<stop  offset="1" style="stop-color:#BA7D2D"/>
		</linearGradient>
		<path id="XMLID_5_" class="st10" d="M1699.2,271l68.1,11.1c-1.7-10.8-9.9-19.8-20.8-22.1l-47.3-10V271z"/>
		<radialGradient id="XMLID_15_" cx="1729.7411" cy="398.5689" r="303.4505" gradientUnits="userSpaceOnUse">
			<stop  offset="0" style="stop-color:#BA7D2D"/>
			<stop  offset="0.5" style="stop-color:#EAD070"/>
			<stop  offset="1" style="stop-color:#BA7D2D"/>
		</radialGradient>
		<path id="XMLID_6_" class="st11" d="M1729.7,102.7c-171.7,0-310.9,139.2-310.9,310.9c0,124,72.5,230.9,177.5,280.8V281.8
			c0-5.2,1.7-9.8,4.6-13.6c0,0,0,0,0,0V267c0-15.3,6.8-29.6,18.7-39.2c11.9-9.6,27.3-13.3,42.3-10.1l18.9,4
			c3.2-6.3,7.6-11.9,13.3-16.5c11.9-9.6,27.3-13.3,42.2-10.2l89.6,19c23.3,4.9,40,25.5,40,49.4v34.7l19.8,3.2
			c11,1.8,19.1,11.3,19.1,22.4v346.8c82-56,135.8-150.1,135.8-256.9C2040.6,241.9,1901.4,102.7,1729.7,102.7z"/>
		<linearGradient id="XMLID_16_" gradientUnits="userSpaceOnUse" x1="1773.911" y1="294.2025" x2="1773.911" y2="217.7402">
			<stop  offset="0" style="stop-color:#EAD070"/>
			<stop  offset="0.2052" style="stop-color:#E4C567"/>
			<stop  offset="0.564" style="stop-color:#D3A850"/>
			<stop  offset="1" style="stop-color:#BA7D2D"/>
		</linearGradient>
		<path id="XMLID_7_" class="st12" d="M1791.5,286l50.6,8.2v-30.8c0-12.5-8.9-23.5-21.1-26.1l-89.6-19c-7.9-1.7-16,0.3-22.3,5.4
			c-1.2,1-2.3,2.1-3.3,3.3l45.7,9.7C1774.7,241.5,1791.5,262.3,1791.5,286z"/>
	</g>
	<path id="XMLID_36_" d="M1814.8,341.9l-76.4-11.9c-2.8-0.4-4.8-3.1-4.3-5.9l0,0c0.4-2.8,3.1-4.8,5.9-4.3l76.4,11.9
		c2.8,0.4,4.8,3.1,4.3,5.9v0C1820.3,340.4,1817.6,342.3,1814.8,341.9z"/>
	<linearGradient id="XMLID_17_" gradientUnits="userSpaceOnUse" x1="1626.6021" y1="304.1331" x2="1684.257" y2="204.272">
		<stop  offset="0.5" style="stop-color:#EAD070"/>
		<stop  offset="1" style="stop-color:#BA7D2D"/>
	</linearGradient>
	<path id="XMLID_8_" class="st13" d="M1656.9,241c-7.9-1.7-16.1,0.3-22.3,5.3c-2.6,2.2-4.8,4.8-6.4,7.6c-1.6,2.8,0.1,6.4,3.3,6.9
		l2.3,0.4l21.3,2.8l0,0c0.7,0,1.4,0.1,2.2,0.2l18.2,2.9v-22.3L1656.9,241z"/>
</g>
<g id="XMLID_34_">
	<g>
		<defs>
			
				<rect id="SVGID_1_" x="1576.6" y="363" transform="matrix(-0.9999 -1.291395e-002 1.291395e-002 -0.9999 3513.8577 1124.8619)" width="367.9" height="376.2"/>
		</defs>
		<clipPath id="SVGID_2_">
			<use xlink:href="#SVGID_1_"  style="overflow:visible;"/>
		</clipPath>
		<g class="st14">
			<defs>
				
					<rect id="SVGID_3_" x="1576.6" y="363" transform="matrix(-0.9999 -1.291395e-002 1.291395e-002 -0.9999 3513.8577 1124.8619)" width="367.9" height="376.2"/>
			</defs>
			<clipPath id="SVGID_4_">
				<use xlink:href="#SVGID_3_"  style="overflow:visible;"/>
			</clipPath>
			<g class="st15">
				<g>
					<defs>
						
							<rect id="SVGID_5_" x="1576.6" y="363" transform="matrix(-0.9999 -1.291396e-002 1.291396e-002 -0.9999 3513.8577 1124.8612)" width="367.9" height="376.2"/>
					</defs>
					<clipPath id="SVGID_6_">
						<use xlink:href="#SVGID_5_"  style="overflow:visible;"/>
					</clipPath>
					<g transform="matrix(1 9.313226e-010 9.313226e-010 1 1.220703e-004 0)" style="clip-path:url(#SVGID_6_);">
						
							<image style="overflow:visible;" width="4675" height="4679" xlink:href="BB33DF5.png"  transform="matrix(7.868926e-002 1.016274e-003 -1.038300e-003 8.039460e-002 1579.0535 360.627)">
						</image>
					</g>
				</g>
			</g>
		</g>
	</g>
</g>
</svg>
