<?xml version="1.0" encoding="UTF-8"?> <svg xmlns="http://www.w3.org/2000/svg" x="0px" y="0px" viewBox="0 0 80 80" style="enable-background:new 0 0 80 80"><path style="fill:#FFFFFF" d="M80 5.4c0-3-2.4-5.4-5.5-5.4-1.5 0-2.8.6-3.9 1.6-.4.4-1.2 1.4-1.6 1.9-.4.6-.3 1.4.2 1.8.5.4 1.3.4 1.8-.2.7-.8 1.2-1.5 1.5-1.7.5-.5 1.3-.9 2-.9 1.6 0 2.8 1.3 2.8 2.8 0 .8-.3 1.5-.9 2-1.5 1.3-3 2.4-4.6 3.5-1.5-2.5-4.2-4.1-7.1-4.1h-19c-2.5 0-5 1-6.8 2.8L1.2 47.6c-1.6 1.6-1.6 4.2 0 5.8l25.4 25.4c1.6 1.6 4.2 1.6 5.7 0l37.9-37.9c1.8-1.8 2.8-4.2 2.8-6.8v-19c0-.6-.1-1.1-.2-1.6 1.9-1.3 3.7-2.7 5.5-4.2 1.1-1 1.7-2.4 1.7-3.9zm-9.5 28.7c0 1.9-.7 3.6-2 4.9L30.6 77c-.6.6-1.5.6-2.1 0L3 51.5c-.3-.3-.4-.6-.4-1s.2-.8.4-1l37.9-37.9c1.3-1.3 3.1-2.1 4.9-2h19c2.1 0 4 1.1 4.9 2.9-1.5 1-3.2 2.1-5.1 3.1l-.2-.2c-2.1-2.1-5.6-2.1-7.7 0-2.1 2.1-2.1 5.6 0 7.7s5.6 2.1 7.7 0c1.4-1.4 1.9-3.4 1.4-5.2 1.6-.9 3.1-1.9 4.5-2.8l.2 19zM59.6 19.8c.2.4.7.7 1.2.7.2 0 .4 0 .6-.1.8-.4 1.5-.8 2.3-1.2 0 1.6-1.2 2.9-2.8 2.9-.8 0-1.5-.3-2-.8-1.1-1.1-1.1-2.9 0-4 .5-.5 1.3-.8 2-.8.6 0 1.2.2 1.6.5-.7.4-1.5.8-2.2 1.2-.8.2-1 1-.7 1.6zm-21 6.6c-.7 0-1.3.6-1.3 1.3v27.4c0 .7.5 1.3 1.2 1.4.7 0 1.3-.5 1.4-1.2V27.7c0-.7-.6-1.3-1.3-1.3zm-5.9 11.1c-2.1-2.1-5.6-2.1-7.7 0s-2.1 5.6 0 7.7 5.6 2.1 7.7 0c1-1 1.6-2.4 1.6-3.9 0-1.4-.6-2.8-1.6-3.8zm-1.8 5.9c-1.1 1.1-2.9 1.1-4 0s-1.1-2.9 0-4 2.9-1.1 4 0 1.1 2.9 0 4zm21.4-5.9c-2.1-2.1-5.6-2.1-7.7 0-2.1 2.1-2.1 5.6 0 7.7 2.1 2.1 5.6 2.1 7.7 0 2.1-2.1 2.1-5.5 0-7.7zm-1.9 5.9c-1.1 1.1-2.9 1.1-4 0s-1.1-2.9 0-4c.5-.5 1.3-.8 2-.8.8 0 1.5.3 2 .8 1.1 1.1 1.1 2.9 0 4z"></path></svg> 