<?xml version="1.0" encoding="UTF-8"?> <svg xmlns="http://www.w3.org/2000/svg" width="50" height="58" viewBox="0 0 50 58" fill="none"><path d="M33.6239 7C38.2264 8.8046 46.1239 9 46.1239 9C46.1239 9 47.3444 27.547 42.1239 37.5C37.3134 46.6712 23.1239 56 23.1239 56C23.1239 56 8.93438 46.6712 4.1239 37.5C-1.09663 27.547 0.123899 9 0.123899 9C0.123899 9 7.53418 8.76273 12.1239 7C16.828 5.19333 23.1239 0 23.1239 0C23.1239 0 29.0358 5.20104 33.6239 7Z" fill="#F1E1E2"></path><path d="M50 11.8438C50 11.3089 49.6128 10.8526 49.0849 10.765L46.7455 10.3754C39.8502 9.22781 33.2497 6.40757 27.6571 2.21886C27.2678 1.92705 26.7322 1.92705 26.3429 2.21886C20.7503 6.40757 14.1498 9.22781 7.25448 10.3754L4.91512 10.765C4.38718 10.8526 4 11.3089 4 11.8438V20.1563C4 31.4839 7.25149 42.25 15.2698 50.3233C20.8645 55.9556 26.4173 57.8646 26.6509 57.9427C26.7638 57.9812 26.8819 58 27 58C27.1177 58 27.2357 57.9808 27.3491 57.9427C27.5827 57.8646 33.1355 55.9556 38.7297 50.3233C46.7498 42.2487 50 31.4817 50 20.1563V11.8438ZM47.8095 20.1563C47.8095 32.0008 44.2573 41.6062 37.2516 48.7053C32.7906 53.226 28.2689 55.2327 27 55.7373C25.7294 55.2319 21.2085 53.2247 16.7484 48.7053C9.74273 41.6062 6.19048 32.0008 6.19048 20.1563V12.7701L7.61471 12.5334C14.5862 11.373 21.271 8.58396 27 4.45164C32.729 8.58396 39.4134 11.373 46.3853 12.5334L47.8095 12.7701V20.1563Z" fill="black"></path><path d="M9.89247 26.6368C10.2912 26.4727 10.5714 26.0809 10.5714 25.6251C10.5714 25.0846 10.1783 24.6351 9.6623 24.5475C9.60197 24.5369 9.53951 24.5313 9.47619 24.5313C8.87167 24.5313 8.38095 25.0214 8.38095 25.6251C8.38095 26.2288 8.87167 26.7188 9.47619 26.7188C9.62422 26.7188 9.76412 26.6889 9.89247 26.6368Z" fill="black"></path><path d="M44.7334 14.4573C38.6942 13.2807 32.7688 10.8804 27.5981 7.51499C27.2345 7.27829 26.7651 7.27829 26.4019 7.51499C21.1768 10.9176 15.4114 13.2533 9.26527 14.4577C8.75145 14.5581 8.38095 15.008 8.38095 15.531C8.38095 15.531 8.38438 20.9164 8.39208 21.2731C8.40448 21.8691 8.89221 22.3438 9.48689 22.3438C9.49459 22.3438 9.50229 22.3438 9.50999 22.3434C10.1149 22.331 10.595 21.8307 10.5821 21.227C10.5749 20.8861 10.5714 16.4226 10.5714 16.4226C16.4318 15.1682 21.9512 12.9201 27.0004 9.73068C32.006 12.8867 37.6538 15.187 43.4286 16.4235V20.1563C43.4286 36.5497 35.3482 47.0288 26.9949 51.012C20.1406 47.7346 13.7737 40.0194 11.5315 29.6574C11.4036 29.067 10.8213 28.6923 10.2292 28.8196C9.63834 28.9469 9.26228 29.5292 9.3902 30.1197C11.8665 41.5622 19.1164 49.9379 26.5529 53.217C26.6941 53.2789 26.8447 53.3101 26.9953 53.3101C27.1476 53.3101 27.2999 53.2785 27.4419 53.2153C36.9149 48.9932 45.6191 37.4764 45.6191 20.1563V15.531C45.6191 15.0072 45.2477 14.5573 44.7334 14.4573Z" fill="black"></path><path d="M27 28.9063C25.1882 28.9063 23.7143 30.3782 23.7143 32.1876C23.7143 33.9969 25.1882 35.4688 27 35.4688C28.8118 35.4688 30.2857 33.9969 30.2857 32.1876C30.2857 30.3782 28.8118 28.9063 27 28.9063ZM27 33.2813C26.3959 33.2813 25.9048 32.7904 25.9048 32.1876C25.9048 31.5843 26.3959 31.0938 27 31.0938C27.6041 31.0938 28.0952 31.5843 28.0952 32.1876C28.0952 32.7904 27.6037 33.2813 27 33.2813Z" fill="black"></path><path d="M27 17.9688C23.9804 17.9688 21.5238 20.4221 21.5238 23.4376V24.5313H20.4286C19.8236 24.5313 19.3333 25.0209 19.3333 25.6251V38.75C19.3333 39.3542 19.8236 39.8438 20.4286 39.8438H33.5714C34.1764 39.8438 34.6667 39.3542 34.6667 38.75V25.6251C34.6667 25.0209 34.1764 24.5313 33.5714 24.5313H32.4762V23.4376C32.4762 20.4221 30.0196 17.9688 27 17.9688ZM23.7143 23.4376C23.7143 21.6282 25.1882 20.1563 27 20.1563C28.8118 20.1563 30.2857 21.6282 30.2857 23.4376V24.5313H23.7143V23.4376ZM32.4762 37.6563H21.5238V26.7188H32.4762V37.6563Z" fill="black"></path></svg> 