<?xml version="1.0" encoding="UTF-8"?> <svg xmlns="http://www.w3.org/2000/svg" width="46" height="60" viewBox="0 0 46 60" fill="none"><path d="M42 58V48C42 42.4772 37.5228 38 32 38H10C4.47715 38 0 42.4772 0 48V58H42Z" fill="#EAF1E1"></path><path d="M33 21C33 22.1046 32.1046 23 31 23C29.8954 23 29 22.1046 29 21C29 19.8954 29.8954 19 31 19C32.1046 19 33 19.8954 33 21Z" fill="#0A0A0A"></path><path d="M28.293 27.2921C27.191 28.393 25.728 28.999 24.17 29.0001H23V31.0001H24.17C26.262 30.9992 28.228 30.1851 29.707 28.7071L28.293 27.2921Z" fill="#0A0A0A"></path><path d="M25.8939 22.448L24.618 24.9999H25.9998V27H22.9998C22.6528 27 22.3318 26.82 22.1488 26.526C21.9668 26.231 21.9498 25.8629 22.1049 25.5529L24.1049 21.553L25.8939 22.448Z" fill="#0A0A0A"></path><path fill-rule="evenodd" clip-rule="evenodd" d="M25 0C15.6261 0 7.99999 7.62597 7.99999 17V19.0001H8.0023C7.37323 19.8363 7.00001 20.8753 7.00001 22C7.00001 24.7569 9.24298 27 12 27H13.1666C13.7701 30.5826 15.9666 33.6312 19 35.3897V37.6508L17.1208 39.9999H15C8.935 39.9999 4 44.9349 4 50.9999V59.9999H6.00004V50.9999C6.00004 46.0369 10.0381 41.9999 15 41.9999H15.5207L11.22 47.3757C10.9611 47.6997 10.928 48.1497 11.138 48.5067C11.347 48.8636 11.7561 49.0497 12.165 48.9867L17.4841 48.0997L24.1361 59.5037C24.3119 59.8053 24.6383 60 25 60C25.369 60 25.7016 59.7973 25.875 59.4852L32.517 48.1001L37.8369 48.9862C38.2389 49.0501 38.6529 48.8642 38.8629 48.5062C39.073 48.148 39.041 47.6991 38.7819 47.3751L34.4818 41.9999H35C39.963 41.9999 44 46.0369 44 50.9999V59.9999H46V50.9999C46 44.9349 41.065 39.9999 35 39.9999H32.8817L31 37.6478V35.3897C34.0334 33.6312 36.2299 30.5826 36.8334 27H38C38.3427 27 38.6775 26.9653 39.001 26.8993V30.1288C39 31.0218 38.607 31.8609 37.92 32.4318L33.36 36.2318L34.641 37.7688L39.2001 33.9688C40.3441 33.0168 41.0001 31.6169 41.0011 30.1299V25.9967C42.2142 25.0836 43 23.6318 43 21.9999C43 20.8753 42.6268 19.8363 41.9977 19.0001H42.0001V17C42.0001 7.62597 34.3741 0 25 0ZM31 40.8511V41C31 41.0911 30.987 41.1811 30.964 41.268L28.0353 51.8114L31.1359 46.496C31.3459 46.138 31.7599 45.951 32.1639 46.0141L35.5869 46.5841L31 40.8511ZM21.9663 51.8132L19.0371 41.268C19.012 41.181 19 41.091 19 41V40.8534L14.415 46.5848L17.837 46.0148C18.244 45.9488 18.655 46.1388 18.865 46.4968L21.9663 51.8132ZM25 3.99999C17.832 3.99999 12 9.83193 12 16.9999C11.2893 16.9999 10.6128 17.149 10 17.4175V17C10 8.72905 16.729 2.00004 25 2.00004C33.271 2.00004 40 8.72905 40 17V17.4176C39.3873 17.1491 38.7107 17.0001 38 17C37.9999 9.83205 32.168 3.99999 25 3.99999ZM37.0304 18.9999L37 19.0004V24.9999H38C39.6539 24.9999 41 23.6539 41 21.9999C41 20.346 39.6539 18.9999 38 18.9999H37.0304ZM30.5831 13.3269C31.6843 15.1878 33.2038 16.7911 35 17.9926V25.0037C34.998 30.516 30.5127 35 25 35C19.4861 35 15 30.514 15 25.0001V21.118L17.2805 19.9779C17.1023 20.277 17 20.6265 17 21C17 22.1046 17.8954 23 19 23C20.1046 23 21 22.1046 21 21C21 19.9677 20.2179 19.118 19.2138 19.0113L30.5831 13.3269ZM13 25V22C12.817 21.9999 12.635 21.95 12.474 21.851C12.18 21.668 12 21.347 12 21V19C10.346 19 9.00005 20.346 9.00005 22C9.00005 23.6539 10.3461 25 12 25H13ZM21.0001 40.863V36.3147C22.2517 36.7585 23.5981 37.0001 25 37.0001C26.4019 37.0001 27.7483 36.7585 29 36.3147V40.863L25 55.263L21.0001 40.863ZM31.8949 11.554C31.7769 11.317 31.5689 11.136 31.3169 11.052C31.0659 10.967 30.7909 10.988 30.553 11.106L14 19.382V17C14 10.935 18.935 6.00003 25.0001 6.00003C30.8091 6.00003 35.5801 10.525 35.9741 16.236C34.2499 15.0501 32.8319 13.4301 31.8949 11.554Z" fill="#0A0A0A"></path><path d="M34 56H31C30.447 56 30 56.447 30 57V60H32.0001V58H38.0001V60H40V57C40 56.447 39.553 56 39 56H36V53.9998H34V56Z" fill="#0A0A0A"></path></svg> 