<?xml version="1.0" encoding="UTF-8"?> <svg xmlns="http://www.w3.org/2000/svg" width="43" height="61" viewBox="0 0 43 61" fill="none"><rect width="28" height="45" rx="4" fill="#E1E5F1"></rect><path d="M7.76195 7.8334H9.66676V20.4H7.76195V7.8334Z" fill="#0A0A0A"></path><path d="M14.4285 7.8334H12.5237V15.5668H14.4285V7.8334Z" fill="#0A0A0A"></path><path fill-rule="evenodd" clip-rule="evenodd" d="M8.7143 34.9H14.4286C14.9543 34.9 15.3809 35.332 15.3809 35.8666V41.6666C15.3809 42.2012 14.9543 42.6332 14.4286 42.6332H8.7143C8.18863 42.6332 7.76195 42.2012 7.76195 41.6666V35.8666C7.76195 35.332 8.18863 34.9 8.7143 34.9ZM9.66675 40.7H13.4762V36.8334H9.66675V40.7Z" fill="#0A0A0A"></path><path fill-rule="evenodd" clip-rule="evenodd" d="M26.8095 3H7.76194C5.13616 3 3 5.1682 3 7.83337V42.6333C3 45.2984 5.13616 47.4667 7.76194 47.4667H16.3334V50.009C16.3334 56.069 21.1915 61 27.162 61H42.0477C42.5743 61 43 60.5679 43 60.0334V35.394C43.001 32.989 42.1867 30.6283 40.7057 28.7482L31.5714 17.1614V7.83337C31.5714 5.1682 29.4352 3 26.8095 3ZM18.2382 50.009V47.4667H24.4131C25.4836 51.3718 28.3437 54.6438 32.1896 56.1056L32.8582 54.295C28.6695 52.703 25.8563 48.5839 25.8572 44.0445V40.6999C25.8572 40.4718 25.7771 40.2494 25.6315 40.0745L17.2058 29.9757C16.363 28.9569 16.4249 27.4768 17.3963 26.4899C17.8819 26.024 18.5162 25.7929 19.1867 25.7969C19.8553 25.8163 20.4772 26.0984 20.9353 26.5914L33.7344 40.3954L35.122 39.0701L31.5714 35.2411V20.2579L39.2171 29.9555C40.4295 31.4925 41.0961 33.424 41.0952 35.393V59.0666H27.162C22.242 59.0666 18.2382 55.0037 18.2382 50.009ZM29.6667 33.187V7.83337C29.6667 6.23452 28.3848 4.93337 26.8096 4.93337H21.0953V24.3365C21.5482 24.5678 21.9626 24.88 22.321 25.2651L23.9524 27.0245V4.93338H25.8572V29.0787L29.6667 33.187ZM19.1905 23.863V4.93337H7.76194C6.18672 4.93337 4.9048 6.23452 4.9048 7.83337V42.6333C4.9048 44.2322 6.18672 45.5333 7.76194 45.5333H19.1905V35.3466L15.7496 31.2227C14.2647 29.4266 14.3743 26.8263 16.0019 25.1694C16.008 25.1626 16.0414 25.1301 16.0674 25.1048L16.0981 25.0747C16.9319 24.2751 18.0201 23.8364 19.1905 23.863ZM21.0953 37.6294V45.5333H24.0383C23.9814 45.0428 23.9524 44.5459 23.9525 44.0445V41.0537L21.0953 37.6294Z" fill="#0A0A0A"></path></svg> 