<?xml version="1.0" encoding="UTF-8"?> <svg xmlns="http://www.w3.org/2000/svg" id="app" fill="#558063" viewBox="0 0 512 512"><path d="M406 408.3c-4.1 0-7.5 3.4-7.5 7.5v22.8H159.7c-4.1 0-7.5 3.4-7.5 7.5s3.4 7.5 7.5 7.5h238.8v21c0 12.4-10.1 22.5-22.5 22.5H136c-12.4 0-22.5-10.1-22.5-22.5v-21h14.2c4.1 0 7.5-3.4 7.5-7.5s-3.4-7.5-7.5-7.5h-14.2V128c0-4.1-3.4-7.5-7.5-7.5s-7.5 3.4-7.5 7.5v346.5c0 20.7 16.8 37.5 37.5 37.5h240c20.7 0 37.5-16.8 37.5-37.5v-58.8c0-4.1-3.4-7.4-7.5-7.4zM376 0H136c-20.7 0-37.5 16.8-37.5 37.5v58.1c0 4.1 3.4 7.5 7.5 7.5s7.5-3.4 7.5-7.5V73.5h285v310.3c0 4.1 3.4 7.5 7.5 7.5s7.5-3.4 7.5-7.5V37.5C413.5 16.8 396.7 0 376 0zm22.5 58.5h-285v-21c0-12.4 10.1-22.5 22.5-22.5h240c12.4 0 22.5 10.1 22.5 22.5v21z"></path><path class="st0" d="M282 28.5h-52c-4.1 0-7.5 3.4-7.5 7.5s3.4 7.5 7.5 7.5h52c4.1 0 7.5-3.4 7.5-7.5s-3.4-7.5-7.5-7.5zM282 468.5h-52c-4.1 0-7.5 3.4-7.5 7.5s3.4 7.5 7.5 7.5h52c4.1 0 7.5-3.4 7.5-7.5s-3.4-7.5-7.5-7.5z"></path></svg> 