<?xml version="1.0" encoding="UTF-8"?> <svg xmlns="http://www.w3.org/2000/svg" id="sw" fill="#558063" viewBox="0 0 512 512"><path d="M143.9 200.1c-4.1 0-7.5 3.4-7.5 7.5v150.6c0 6.9 5.6 12.5 12.5 12.5h186.4c6.9 0 12.5-5.6 12.5-12.5V153.8c0-6.9-5.6-12.5-12.5-12.5H148.9c-6.9 0-12.5 5.6-12.5 12.5v23.8c0 4.1 3.4 7.5 7.5 7.5s7.5-3.4 7.5-7.5v-21.3h181.4v199.5H151.4V207.6c0-4.2-3.3-7.5-7.5-7.5z"></path><path class="st0" d="M384.3 162.5h-11v-14.2c0-17.9-14.6-32.5-32.5-32.5h-1.2v-.1c0-18.3-13.6-33.5-31.3-36.1-3.4-8.9-5.2-18.6-5.2-28.3V7.5c0-4.1-3.4-7.5-7.5-7.5h-107c-4.1 0-7.5 3.4-7.5 7.5v43.9c0 9.7-1.8 19.4-5.2 28.3a36.45 36.45 0 0 0-31.3 36.1v.1h-1.2c-17.9 0-32.5 14.6-32.5 32.5v215.4c0 17.9 14.6 32.5 32.5 32.5h1.2v.1c0 18.3 13.6 33.5 31.3 36.1 3.4 8.9 5.2 18.6 5.2 28.3v43.9c0 4.1 3.4 7.5 7.5 7.5h107c4.1 0 7.5-3.4 7.5-7.5v-43.9c0-9.7 1.8-19.4 5.2-28.3a36.53 36.53 0 0 0 31.3-36.1v-.1h1.2c17.9 0 32.5-14.6 32.5-32.5v-19c0-4.1-3.4-7.5-7.5-7.5s-7.5 3.4-7.5 7.5v19c0 9.6-7.9 17.5-17.5 17.5H143.6c-9.6 0-17.5-7.9-17.5-17.5V148.3c0-9.6 7.9-17.5 17.5-17.5h197.1c9.6 0 17.5 7.9 17.5 17.5v166.4c0 4.1 3.4 7.5 7.5 7.5s7.5-3.4 7.5-7.5v-90.2h11c9.6 0 17.5-7.9 17.5-17.5v-27c.1-9.6-7.7-17.5-17.4-17.5zm-96.1 298.1V497h-92v-36.4c0-12.9-2.7-25.8-7.7-37.5H296a92.66 92.66 0 0 0-7.8 37.5zm36.4-64.3c0 9.3-6 17.2-14.3 20.2-.3-.7-.6-1.3-1.1-2-2.6-4-6.9-6.3-11.6-6.3h-111a13.81 13.81 0 0 0-12.7 8.3c-8.3-3-14.3-10.9-14.3-20.2v-.1l165 .1zM196.1 51.4V15h92v36.4c0 12.9 2.7 25.8 7.7 37.5H188.4c5.1-11.7 7.7-24.6 7.7-37.5zm-36.4 64.3c0-9.3 6-17.2 14.3-20.2.3.7.6 1.3 1.1 2 2.6 4 6.9 6.3 11.6 6.3h111.1a13.81 13.81 0 0 0 12.7-8.3c8.3 3 14.3 10.9 14.3 20.2v.1l-165.1-.1zM386.8 207c0 1.4-1.1 2.5-2.5 2.5h-11v-32h11c1.4 0 2.5 1.1 2.5 2.5v27z"></path></svg> 