<?xml version="1.0" encoding="UTF-8"?> <svg xmlns="http://www.w3.org/2000/svg" id="lamp" fill="#558063" viewBox="0 0 496 496"><path d="M224 384h-72c-4.4 0-8 3.6-8 8s3.6 8 8 8h72c4.4 0 8-3.6 8-8s-3.6-8-8-8zM240 392c0 4.4 3.6 8 8 8h8c4.4 0 8-3.6 8-8s-3.6-8-8-8h-8c-4.4 0-8 3.6-8 8z"></path><path class="st0" d="M400 0H96c-4.4 0-8 3.6-8 8s3.6 8 8 8h82.2l6.2 18.5c1.1 3.3 4.1 5.5 7.6 5.5h32v226.3A128.2 128.2 0 0 0 120 392c0 14.5 2.5 29 7.3 42.7 1.1 3.2 4.2 5.3 7.5 5.3h20.8a104.07 104.07 0 0 0 184.6 0H361c3.4 0 6.4-2.1 7.5-5.3 4.9-13.7 7.4-28.1 7.3-42.7a128.2 128.2 0 0 0-104-125.7V40h32c3.4 0 6.5-2.2 7.6-5.5l6.2-18.5H400c4.4 0 8-3.6 8-8s-3.6-8-8-8zM248 480a88.48 88.48 0 0 1-73.8-40h147.6a88.48 88.48 0 0 1-73.8 40zm112-88c0 10.8-1.6 21.6-4.7 32H140.7a112 112 0 0 1 153.7-133.9c40 18.1 65.6 58 65.6 101.9zM256 264h-16V40h16v224zm42.2-240H197.8l-2.7-8h105.8l-2.7 8z"></path></svg> 