<?xml version="1.0" encoding="UTF-8"?> <svg xmlns="http://www.w3.org/2000/svg" id="wm" fill="#558063" viewBox="0 0 496 496"><path d="M424 0H72C58.7 0 48 10.7 48 24v432c0 13.3 10.7 24 24 24v8c0 4.4 3.6 8 8 8h40c4.4 0 8-3.6 8-8v-8h240v8c0 4.4 3.6 8 8 8h40c4.4 0 8-3.6 8-8v-8c13.3 0 24-10.7 24-24V24c0-13.3-10.7-24-24-24zM72 16h352c4.4 0 8 3.6 8 8v88H64V24c0-4.4 3.6-8 8-8zm352 448H72c-4.4 0-8-3.6-8-8V128h368v328c0 4.4-3.6 8-8 8z"></path><path class="st0" d="M112 96c17.7 0 32-14.3 32-32s-14.3-32-32-32-32 14.3-32 32 14.3 32 32 32zm0-48c8.8 0 16 7.2 16 16s-7.2 16-16 16-16-7.2-16-16 7.2-16 16-16zM384 96c17.7 0 32-14.3 32-32s-14.3-32-32-32-32 14.3-32 32 14.3 32 32 32zm0-48c8.8 0 16 7.2 16 16s-7.2 16-16 16-16-7.2-16-16 7.2-16 16-16zM224 96h48c4.4 0 8-3.6 8-8V40c0-4.4-3.6-8-8-8h-48c-4.4 0-8 3.6-8 8v48c0 4.4 3.6 8 8 8zm8-48h32v32h-32V48zM384 296c0-75.1-60.9-136-136-136s-136 60.9-136 136 60.9 136 136 136c75.1-.1 135.9-60.9 136-136zM248 416c-66.3 0-120-53.7-120-120s53.7-120 120-120 120 53.7 120 120c-.1 66.2-53.8 119.9-120 120z"></path><path class="st0" d="M211.4 243.5A64 64 0 0 0 184 296c0 4.4 3.6 8 8 8s8-3.6 8-8c0-15.7 7.7-30.4 20.6-39.4 3.5-2.6 4.3-7.5 1.9-11a8.14 8.14 0 0 0-11.1-2.1z"></path><path class="st0" d="M352 288h-8.4c-4.3-51.3-48.3-90.1-99.7-87.9-51.4 2.1-92 44.5-92 95.9s40.6 93.8 92 95.9c51.4 2.1 95.4-36.6 99.7-87.9h8.4c4.4 0 8-3.6 8-8s-3.6-8-8-8zm-104 88c-44.2 0-80-35.8-80-80s35.8-80 80-80 80 35.8 80 80-35.8 80-80 80zM384 432h-56c-4.4 0-8 3.6-8 8s3.6 8 8 8h56c4.4 0 8-3.6 8-8s-3.6-8-8-8zM416 432h-8c-4.4 0-8 3.6-8 8s3.6 8 8 8h8c4.4 0 8-3.6 8-8s-3.6-8-8-8z"></path></svg> 