<?xml version="1.0" encoding="UTF-8"?> <svg xmlns="http://www.w3.org/2000/svg" id="des" fill="#558063" viewBox="0 0 470 470"><path d="M432.5 12.5h-395C16.8 12.5 0 29.3 0 50v300c0 20.7 16.8 37.5 37.5 37.5h145v55H130c-4.1 0-7.5 3.4-7.5 7.5s3.4 7.5 7.5 7.5h210c4.1 0 7.5-3.4 7.5-7.5s-3.4-7.5-7.5-7.5h-52.5v-55h145c20.7 0 37.5-16.8 37.5-37.5V50c0-20.7-16.8-37.5-37.5-37.5zm-160 430h-75v-55h75v55zM455 350c0 12.4-10.1 22.5-22.5 22.5h-395C25.1 372.5 15 362.4 15 350v-22.5h440V350zm0-37.5H15V50c0-12.4 10.1-22.5 22.5-22.5h395c12.4 0 22.5 10.1 22.5 22.5v262.5z"></path><path class="st0" d="M432.5 42.5h-395c-4.1 0-7.5 3.4-7.5 7.5v240c0 4.1 3.4 7.5 7.5 7.5h325c4.1 0 7.5-3.4 7.5-7.5s-3.4-7.5-7.5-7.5H45v-225h380v225h-32.5c-4.1 0-7.5 3.4-7.5 7.5s3.4 7.5 7.5 7.5h40c4.1 0 7.5-3.4 7.5-7.5V50c0-4.1-3.4-7.5-7.5-7.5z"></path></svg> 