<?xml version="1.0" encoding="utf-8"?>
<!-- Generator: Adobe Illustrator 19.0.0, SVG Export Plug-In . SVG Version: 6.00 Build 0)  -->
<svg version="1.1" xmlns="http://www.w3.org/2000/svg" xmlns:xlink="http://www.w3.org/1999/xlink" x="0px" y="0px"
	 viewBox="1375 16.9 3345 808" style="enable-background:new 1375 16.9 3345 808;" xml:space="preserve">
<style type="text/css">
	.st0{display:none;}
	.st1{display:inline;fill:#FF25FF;}
	.st2{enable-background:new    ;}
	.st3{fill:#FFFFFF;}
	.st4{display:none;fill:#FF25FF;}
	.st5{display:none;fill:none;stroke:#FFFFFF;stroke-width:59;stroke-miterlimit:10;}
	.st6{opacity:0.46;}
	.st7{fill:none;stroke:#000000;stroke-width:50;stroke-miterlimit:10;}
	.st8{fill:none;stroke:#FFFFFF;stroke-width:50;stroke-miterlimit:10;}
	.st9{fill:#ECEEF0;}
</style>
<g id="Layer_2" class="st0">
	<rect x="1330" y="-28.2" class="st1" width="3442" height="1028"/>
</g>
<g id="Layer_1">
	
		<image style="overflow:visible;opacity:0.75;" width="2624" height="466" xlink:href="89D33035.png"  transform="matrix(1 0 0 1 2111 183.89)">
	</image>
	<g>
		<g>
			<g class="st2">
				<path class="st3" d="M2189.2,214.6l133.1,332.3l133.1-332.3h69.7v407.3h-53.7V463.2l5-171.2l-133.7,329.8h-41.1l-133.4-329
					l5.3,170.3v158.6h-53.7V214.6H2189.2z"/>
				<path class="st3" d="M2598.2,467.7c0-29.6,5.8-56.3,17.5-80c11.7-23.7,27.9-42,48.7-54.8c20.8-12.9,44.5-19.3,71.2-19.3
					c41.2,0,74.5,14.3,100,42.8c25.5,28.5,38.2,66.5,38.2,113.8v3.6c0,29.5-5.6,55.9-16.9,79.3c-11.3,23.4-27.4,41.6-48.4,54.7
					c-21,13.1-45.1,19.6-72.3,19.6c-41,0-74.3-14.3-99.7-42.8c-25.5-28.5-38.2-66.3-38.2-113.3V467.7z M2650.2,473.9
					c0,33.6,7.8,60.5,23.4,80.8c15.6,20.3,36.4,30.5,62.5,30.5c26.3,0,47.2-10.3,62.7-30.9c15.5-20.6,23.2-49.5,23.2-86.6
					c0-33.2-7.9-60.1-23.6-80.7c-15.8-20.6-36.7-30.9-62.8-30.9c-25.6,0-46.2,10.2-61.8,30.5C2658.1,406.9,2650.2,436,2650.2,473.9z
					"/>
				<path class="st3" d="M3194.8,473.9c0,46.3-10.6,83.4-31.9,111.5c-21.3,28.1-49.8,42.1-85.6,42.1c-38.2,0-67.8-13.5-88.7-40.6
					l-2.5,35h-47.6V192.2h51.7v160.3c20.9-25.9,49.7-38.9,86.4-38.9c36.7,0,65.6,13.9,86.6,41.7c21,27.8,31.5,65.8,31.5,114.1V473.9
					z M3143.1,468c0-35.2-6.8-62.5-20.4-81.7c-13.6-19.2-33.2-28.8-58.7-28.8c-34.1,0-58.6,15.9-73.6,47.6V536
					c15.8,31.7,40.6,47.6,74.1,47.6c24.8,0,44.1-9.6,57.9-28.8C3136.2,535.5,3143.1,506.6,3143.1,468z"/>
				<path class="st3" d="M3260.3,238.9c0-8.4,2.6-15.5,7.7-21.3c5.1-5.8,12.7-8.7,22.8-8.7c10.1,0,17.7,2.9,22.9,8.7
					c5.2,5.8,7.8,12.9,7.8,21.3s-2.6,15.4-7.8,21c-5.2,5.6-12.9,8.4-22.9,8.4c-10.1,0-17.7-2.8-22.8-8.4
					C3262.9,254.3,3260.3,247.3,3260.3,238.9z M3316.2,621.8h-51.7V319.2h51.7V621.8z"/>
				<path class="st3" d="M3469.2,245.9v73.3h56.5v40h-56.5v187.9c0,12.1,2.5,21.2,7.6,27.3s13.6,9.1,25.7,9.1c6,0,14.2-1.1,24.6-3.4
					v41.7c-13.6,3.7-26.9,5.6-39.7,5.6c-23.1,0-40.6-7-52.3-21c-11.7-14-17.6-33.8-17.6-59.6V359.2h-55.1v-40h55.1v-73.3H3469.2z"/>
				<path class="st3" d="M3711.8,627.4c-41,0-74.4-13.5-100.1-40.4c-25.7-26.9-38.6-63-38.6-108.1v-9.5c0-30,5.7-56.8,17.2-80.4
					c11.5-23.6,27.5-42,48.1-55.4c20.6-13.3,42.9-20,67-20c39.3,0,69.9,13,91.7,38.9c21.8,25.9,32.7,63,32.7,111.3v21.5h-205
					c0.7,29.8,9.5,53.9,26.2,72.3c16.7,18.4,37.9,27.6,63.6,27.6c18.3,0,33.8-3.7,46.4-11.2c12.7-7.5,23.8-17.3,33.3-29.7l31.6,24.6
					C3800.5,607.9,3762.5,627.4,3711.8,627.4z M3705.3,356.1c-20.9,0-38.4,7.6-52.6,22.8c-14.2,15.2-22.9,36.5-26.3,63.9h151.6v-3.9
					c-1.5-26.3-8.6-46.7-21.3-61.1C3744.1,363.3,3727,356.1,3705.3,356.1z"/>
				<path class="st3" d="M3945.9,621.8h-51.7V192.2h51.7V621.8z"/>
				<path class="st3" d="M4036.8,621.8V214.6h133.1c44.2,0,77.4,9.1,99.7,27.4c22.3,18.3,33.4,45.3,33.4,81.1
					c0,19-5.4,35.9-16.2,50.5c-10.8,14.6-25.6,26-44.2,34c22,6.2,39.4,17.9,52.2,35.1c12.8,17.3,19.2,37.8,19.2,61.7
					c0,36.6-11.8,65.3-35.5,86.2c-23.7,20.9-57.2,31.3-100.4,31.3H4036.8z M4090.5,388.3h81.1c23.5,0,42.3-5.9,56.4-17.7
					c14.1-11.8,21.1-27.8,21.1-47.9c0-22.4-6.5-38.7-19.6-48.9c-13.1-10.2-32.9-15.3-59.6-15.3h-79.4V388.3z M4090.5,431.3v146.6
					h88.7c25,0,44.7-6.5,59.2-19.4c14.4-13,21.7-30.8,21.7-53.6c0-49-26.7-73.6-80-73.6H4090.5z"/>
				<path class="st3" d="M4618.3,515.3h-170.6l-38.3,106.6H4354l155.5-407.3h47l155.8,407.3h-55.1L4618.3,515.3z M4463.9,471.3
					h138.5L4533,280.9L4463.9,471.3z"/>
			</g>
		</g>
	</g>
	
		<image style="display:none;overflow:visible;enable-background:new    ;" width="800" height="771" xlink:href="89D33037.png"  transform="matrix(1 0 0 1 1379 20.89)">
	</image>
	<rect x="1390" y="-92.2" class="st4" width="3442" height="1028"/>
	<rect x="1379" y="20.9" class="st5" width="797" height="796.9"/>
</g>
<g id="Layer_3">
	<g>
		<g class="st6">
			<path class="st7" d="M2153,226.8"/>
		</g>
		<g>
			<path class="st8" d="M2146,219.8"/>
		</g>
	</g>
	<g>
		
			<image style="overflow:visible;opacity:0.46;" width="801" height="823" xlink:href="89D33032.png"  transform="matrix(1 0 0 1 1392 15.89)">
		</image>
		<g>
			<polyline class="st8" points="2146,681.8 2146,791.8 1425,791.8 1425,49.8 2146,49.8 2146,107.8 			"/>
		</g>
	</g>
	<g>
		
			<image style="overflow:visible;opacity:0.46;" width="80" height="81" xlink:href="89D33033.png"  transform="matrix(1 0 0 1 2113 98.89)">
		</image>
		<g>
			<line class="st8" x1="2146" y1="107.8" x2="2146" y2="157.8"/>
		</g>
	</g>
</g>
<g id="Layer_4">
	<g>
		
			<image style="overflow:visible;opacity:0.55;" width="457" height="622" xlink:href="89D3303D.png"  transform="matrix(1 0 0 1 1568 94.89)">
		</image>
		<g>
			<g>
				<g>
					<path class="st9" d="M1873.3,593.1l-262-30.1l45.2-393.9l262,30.1l-9.7,84.9l31.2,3.6l13-113.5c2.6-23-13.9-43.9-36.9-46.5
						L1675,99.9c-23.1-2.6-43.9,13.9-46.5,37l-56.2,489.6c-2.6,23,13.9,43.9,36.9,46.5l241.1,27.7c23,2.6,43.8-13.9,46.5-36.9
						l21.1-183.9l-31.2-3.6L1873.3,593.1z M1885.6,150.5c5.9,0.7,10.1,6,9.4,11.9s-6,10.1-11.9,9.4c-5.9-0.7-10.1-6-9.4-11.9
						S1879.7,149.9,1885.6,150.5z M1736.2,137.5l111.9,12.8l-1.4,12.2l-111.9-12.8L1736.2,137.5z M1785.8,648.2L1684,636.5l3.6-31.3
						l101.8,11.7L1785.8,648.2z"/>
					<path class="st3" d="M1735.8,442.2l28.1,3.2l-35.8,63.6l89.7-57.4l159.4,18.3l18.7-162.6l-241.5-27.7L1735.8,442.2z"/>
					<path class="st3" d="M1873.3,594.1l-262-30.1l45.2-393.9l262,30.1l-9.7,84.9l31.2,3.6l13-113.5c2.6-23-13.9-43.9-36.9-46.5
						L1675,100.9c-23.1-2.6-43.9,13.9-46.5,37l-56.2,489.6c-2.6,23,13.9,43.9,36.9,46.5l241.1,27.7c23,2.6,43.8-13.9,46.5-36.9
						l21.1-183.9l-31.2-3.6L1873.3,594.1z M1885.6,151.5c5.9,0.7,10.1,6,9.4,11.9s-6,10.1-11.9,9.4c-5.9-0.7-10.1-6-9.4-11.9
						S1879.7,150.9,1885.6,151.5z M1736.2,138.5l111.9,12.8l-1.4,12.2l-111.9-12.8L1736.2,138.5z M1785.8,649.2L1684,637.5l3.6-31.3
						l101.8,11.7L1785.8,649.2z"/>
				</g>
				<path class="st3" d="M1980.8,470.9l-244-28c-6.6-0.8-11.3-6.7-10.6-13.3l16-139.4c0.8-6.6,6.7-11.3,13.3-10.6l244,28
					c6.6,0.8,11.3,6.7,10.6,13.3l-16,139.4C1993.3,466.9,1987.3,471.7,1980.8,470.9z"/>
			</g>
		</g>
	</g>
</g>
</svg>
