<?xml version="1.0" encoding="utf-8"?>
<!-- Generator: Adobe Illustrator 19.0.0, SVG Export Plug-In . SVG Version: 6.00 Build 0)  -->
<svg version="1.1" xmlns="http://www.w3.org/2000/svg" xmlns:xlink="http://www.w3.org/1999/xlink" x="0px" y="0px"
	 viewBox="1375 16.9 3345 808" style="enable-background:new 1375 16.9 3345 808;" xml:space="preserve">
<style type="text/css">
	.st0{display:none;}
	.st1{display:inline;fill:#FF25FF;}
	.st2{fill:#FFFFFF;}
	.st3{font-family:'Roboto-Regular';}
	.st4{font-size:572.8666px;}
	.st5{display:none;fill:#FF25FF;}
	.st6{display:none;fill:none;stroke:#FFFFFF;stroke-width:59;stroke-miterlimit:10;}
	.st7{opacity:0.46;}
	.st8{fill:none;stroke:#000000;stroke-width:50;stroke-miterlimit:10;}
	.st9{fill:none;stroke:#FFFFFF;stroke-width:50;stroke-miterlimit:10;}
	.st10{fill:#ECEEF0;}
</style>
<g id="Layer_2" class="st0">
	<rect x="1330" y="-28.2" class="st1" width="3442" height="1028"/>
</g>
<g id="Layer_1">
	
		<image style="overflow:visible;opacity:0.75;" width="2678" height="677" xlink:href="AD93777C.png"  transform="matrix(1 0 0 1 2064 122.89)">
	</image>
	<g>
		<g>
			<text transform="matrix(1 0 0 1 2072.6008 621.8351)" class="st2 st3 st4">MobitelBA</text>
		</g>
	</g>
	
		<image style="display:none;overflow:visible;enable-background:new    ;" width="800" height="771" xlink:href="AD93777D.png"  transform="matrix(1 0 0 1 1379 20.89)">
	</image>
	<rect x="1390" y="-92.2" class="st5" width="3442" height="1028"/>
	<rect x="1379" y="20.9" class="st6" width="797" height="796.9"/>
</g>
<g id="Layer_3">
	<g>
		<g class="st7">
			<path class="st8" d="M2153,226.8"/>
		</g>
		<g>
			<path class="st9" d="M2146,219.8"/>
		</g>
	</g>
	<g>
		
			<image style="overflow:visible;opacity:0.46;" width="801" height="823" xlink:href="AD93777B.png"  transform="matrix(1 0 0 1 1392 15.89)">
		</image>
		<g>
			<polyline class="st9" points="2146,681.8 2146,791.8 1425,791.8 1425,49.8 2146,49.8 2146,107.8 			"/>
		</g>
	</g>
	<g>
		
			<image style="overflow:visible;opacity:0.46;" width="80" height="81" xlink:href="AD937784.png"  transform="matrix(1 0 0 1 2113 98.89)">
		</image>
		<g>
			<line class="st9" x1="2146" y1="107.8" x2="2146" y2="157.8"/>
		</g>
	</g>
</g>
<g id="Layer_4">
	<g>
		
			<image style="overflow:visible;opacity:0.55;" width="457" height="622" xlink:href="AD937787.png"  transform="matrix(1 0 0 1 1568 94.89)">
		</image>
		<g>
			<g>
				<g>
					<path class="st10" d="M1873.3,593.1l-262-30.1l45.2-393.9l262,30.1l-9.7,84.9l31.2,3.6l13-113.5c2.6-23-13.9-43.9-36.9-46.5
						L1675,99.9c-23.1-2.6-43.9,13.9-46.5,37l-56.2,489.6c-2.6,23,13.9,43.9,36.9,46.5l241.1,27.7c23,2.6,43.8-13.9,46.5-36.9
						l21.1-183.9l-31.2-3.6L1873.3,593.1z M1885.6,150.5c5.9,0.7,10.1,6,9.4,11.9s-6,10.1-11.9,9.4c-5.9-0.7-10.1-6-9.4-11.9
						S1879.7,149.9,1885.6,150.5z M1736.2,137.5l111.9,12.8l-1.4,12.2l-111.9-12.8L1736.2,137.5z M1785.8,648.2L1684,636.5l3.6-31.3
						l101.8,11.7L1785.8,648.2z"/>
					<path class="st2" d="M1735.8,442.2l28.1,3.2l-35.8,63.6l89.7-57.4l159.4,18.3l18.7-162.6l-241.5-27.7L1735.8,442.2z"/>
					<path class="st2" d="M1873.3,594.1l-262-30.1l45.2-393.9l262,30.1l-9.7,84.9l31.2,3.6l13-113.5c2.6-23-13.9-43.9-36.9-46.5
						L1675,100.9c-23.1-2.6-43.9,13.9-46.5,37l-56.2,489.6c-2.6,23,13.9,43.9,36.9,46.5l241.1,27.7c23,2.6,43.8-13.9,46.5-36.9
						l21.1-183.9l-31.2-3.6L1873.3,594.1z M1885.6,151.5c5.9,0.7,10.1,6,9.4,11.9s-6,10.1-11.9,9.4c-5.9-0.7-10.1-6-9.4-11.9
						S1879.7,150.9,1885.6,151.5z M1736.2,138.5l111.9,12.8l-1.4,12.2l-111.9-12.8L1736.2,138.5z M1785.8,649.2L1684,637.5l3.6-31.3
						l101.8,11.7L1785.8,649.2z"/>
				</g>
				<path class="st2" d="M1980.8,470.9l-244-28c-6.6-0.8-11.3-6.7-10.6-13.3l16-139.4c0.8-6.6,6.7-11.3,13.3-10.6l244,28
					c6.6,0.8,11.3,6.7,10.6,13.3l-16,139.4C1993.3,466.9,1987.3,471.7,1980.8,470.9z"/>
			</g>
		</g>
	</g>
</g>
</svg>
