<?xml version="1.0" encoding="UTF-8"?> <svg xmlns="http://www.w3.org/2000/svg" width="40" height="40" viewBox="0 0 40 40"><metadata><?xpacket begin="﻿" id="W5M0MpCehiHzreSzNTczkc9d"?><?xpacket end="w"?></metadata><defs><style> .cls-1 { fill: #43b02a; fill-rule: evenodd; } </style></defs><path id="white-electronics-ns-cpu" class="cls-1" d="M745.4,5585.6v2.99a2.97,2.97,0,0,0-1.363,2.5,2.94,2.94,0,0,0,1.363,2.49v28.82H708.6v-28.82a2.939,2.939,0,0,0,1.362-2.49,2.97,2.97,0,0,0-1.363-2.5v-2.99h28.373a2.957,2.957,0,0,0,4.99,0h3.43m0-1.6h-4.561a1.363,1.363,0,0,1-2.726,0H708.6a1.6,1.6,0,0,0-1.6,1.6v4.13h0a1.36,1.36,0,1,1,0,2.72h0v29.95a1.6,1.6,0,0,0,1.6,1.6H745.4a1.6,1.6,0,0,0,1.6-1.6v-29.95a1.36,1.36,0,1,1,0-2.72v-4.13a1.6,1.6,0,0,0-1.6-1.6h0Zm-6.113,6.37a1.6,1.6,0,0,1,1.6,1.6v24.06a1.6,1.6,0,0,1-1.6,1.6H715.23a1.606,1.606,0,0,1-1.6-1.6v-24.06a1.606,1.606,0,0,1,1.6-1.6h24.053m0-1.6H715.23a3.2,3.2,0,0,0-3.207,3.2v24.06a3.2,3.2,0,0,0,3.207,3.2h24.053a3.2,3.2,0,0,0,3.207-3.2v-24.06a3.2,3.2,0,0,0-3.207-3.2h0Zm-16.516,18.62a4.087,4.087,0,0,1-1.257.74,4.167,4.167,0,0,1-1.443.26,4.029,4.029,0,0,1-1.1-.15,4.247,4.247,0,0,1-.993-0.42,4.343,4.343,0,0,1-1.5-1.5,4.149,4.149,0,0,1-.421-1,4.04,4.04,0,0,1-.149-1.1,4.167,4.167,0,0,1,.149-1.11,4.294,4.294,0,0,1,.421-0.99,4.356,4.356,0,0,1,.654-0.85,4.218,4.218,0,0,1,1.839-1.07,4.029,4.029,0,0,1,1.1-.15,4.158,4.158,0,0,1,1.443.25,3.915,3.915,0,0,1,1.257.75l-0.853,1.4a2.357,2.357,0,0,0-.836-0.58,2.509,2.509,0,0,0-1.011-.21,2.564,2.564,0,0,0-1,.2,2.717,2.717,0,0,0-.814.55,2.482,2.482,0,0,0-.551.82,2.527,2.527,0,0,0,0,1.98,2.529,2.529,0,0,0,.551.81,2.6,2.6,0,0,0,1.813.76,2.569,2.569,0,0,0,1.847-.79Zm2.544,0.82H723.7v-8.05h3.224a3.033,3.033,0,0,1,.854.12,2.986,2.986,0,0,1,.766.32,3.184,3.184,0,0,1,.651.51,3.066,3.066,0,0,1,.506.65,3.313,3.313,0,0,1,.326.77,3.233,3.233,0,0,1-.137,2.1,3.433,3.433,0,0,1-.691,1.03,3.316,3.316,0,0,1-1.025.69,3.09,3.09,0,0,1-1.249.25h-1.611v1.61h0Zm0-6.44V5605h1.612a1.643,1.643,0,0,0,.624-0.13,1.518,1.518,0,0,0,.51-0.35,1.489,1.489,0,0,0,.345-0.51,1.612,1.612,0,0,0,.127-0.63,1.528,1.528,0,0,0-.127-0.62,1.568,1.568,0,0,0-.855-0.86,1.47,1.47,0,0,0-.624-0.13h-1.612Zm12.123,3.22a3.134,3.134,0,0,1-.253,1.26,3.2,3.2,0,0,1-.691,1.02,3.3,3.3,0,0,1-1.023.69,3.275,3.275,0,0,1-2.51,0,3.228,3.228,0,0,1-1.708-1.71,3.134,3.134,0,0,1-.253-1.26v-4.83H732.6v4.83a1.628,1.628,0,0,0,.125.63,1.73,1.73,0,0,0,.346.51,1.634,1.634,0,0,0,.514.34,1.57,1.57,0,0,0,1.251,0,1.65,1.65,0,0,0,.515-0.34,1.746,1.746,0,0,0,.345-0.51,1.612,1.612,0,0,0,.127-0.63v-4.83h1.611v4.83h0Z" transform="translate(-707 -5584)"></path></svg> 