<?xml version="1.0" encoding="UTF-8"?> <svg xmlns="http://www.w3.org/2000/svg" width="40" height="40" viewBox="0 0 40 40"><metadata><?xpacket begin="﻿" id="W5M0MpCehiHzreSzNTczkc9d"?><?xpacket end="w"?></metadata><defs><style> .cls-1 { fill: #43b02a; fill-rule: evenodd; } </style></defs><path id="white-electronics-ns-display" class="cls-1" d="M397.889,5605l-6.69,6.69a3.615,3.615,0,0,0-3.589-3.16,3.616,3.616,0,0,0-3.61,3.61v8.24a3.613,3.613,0,0,0,.068.7,3.368,3.368,0,0,0,.1.37,3.025,3.025,0,0,0,.1.3,3.421,3.421,0,0,0,.2.4,2.294,2.294,0,0,0,.134.24,4.117,4.117,0,0,0,.381.48l0.057,0.06c0.006,0,.01.01,0.015,0.01l0.007,0.01a3.616,3.616,0,0,0,.545.44,1.286,1.286,0,0,0,.242.14l0.105,0.06a1.359,1.359,0,0,0,.272.13,3.813,3.813,0,0,0,.422.14,2.436,2.436,0,0,0,.252.07,3.4,3.4,0,0,0,.718.07h8.24a3.615,3.615,0,0,0,2.552-6.17,3.629,3.629,0,0,0-2.1-1.03l6.69-6.69a3.614,3.614,0,0,0,0-5.11A3.692,3.692,0,0,0,397.889,5605Zm3.649,3.65-10.186,10.18h4.505a1.565,1.565,0,0,1,1.1.46,1.546,1.546,0,0,1-1.093,2.64h-8.252a1.621,1.621,0,0,1-.307-0.03l-0.547-.23a1.327,1.327,0,0,1-.206-0.16l-0.034-.04a1.035,1.035,0,0,1-.2-0.25l-0.224-.53a1.482,1.482,0,0,1-.03-0.31v-8.24a1.554,1.554,0,0,1,2.647-1.1,1.574,1.574,0,0,1,.452,1.1v4.5l10.186-10.18a1.576,1.576,0,0,1,2.19,0,1.526,1.526,0,0,1,.453,1.09A1.542,1.542,0,0,1,401.538,5608.65Zm22.456-21.12a3.6,3.6,0,0,0-.065-0.61,1.987,1.987,0,0,0-.079-0.29l-0.031-.11a2.063,2.063,0,0,0-.1-0.29,2.461,2.461,0,0,0-.147-0.29l-0.053-.1a2.119,2.119,0,0,0-.131-0.23,3.789,3.789,0,0,0-1-1,2.309,2.309,0,0,0-.239-0.13l-0.112-.06a1.218,1.218,0,0,0-.269-0.14c-0.1-.04-0.213-0.08-0.32-0.11l-0.112-.03a1.8,1.8,0,0,0-.254-0.07,3.218,3.218,0,0,0-.436-0.06l-0.268-.01h-8.245a3.614,3.614,0,0,0-.451,7.2L405,5597.89a3.614,3.614,0,1,0,5.113,5.11l6.689-6.69a3.619,3.619,0,0,0,3.586,3.16,3.614,3.614,0,0,0,3.615-3.61Zm-2.061,8.33a1.557,1.557,0,0,1-1.55,1.55,1.554,1.554,0,0,1-1.549-1.55v-4.5l-10.184,10.18a1.6,1.6,0,0,1-2.192,0,1.552,1.552,0,0,1,0-2.19l10.187-10.19h-4.506a1.545,1.545,0,1,1,0-3.09h8.246a1.8,1.8,0,0,1,.319.03l0.539,0.23a1.5,1.5,0,0,1,.437.44l0.223,0.54a1.938,1.938,0,0,1,.026.3l0,0.06v8.19Z" transform="translate(-384 -5584)"></path></svg> 