<?xml version="1.0" encoding="UTF-8"?> <svg xmlns="http://www.w3.org/2000/svg" width="40" height="25" viewBox="0 0 40 25"><metadata><?xpacket begin="﻿" id="W5M0MpCehiHzreSzNTczkc9d"?><?xpacket end="w"?></metadata><defs><style> .cls-1 { fill: #43b02a; fill-rule: evenodd; } </style></defs><path id="white-electronics-ns-battery" class="cls-1" d="M420.2,5732.6a0.814,0.814,0,0,1,.82.81v4.91h3.52a0.812,0.812,0,0,1,.819.8v8.76a0.812,0.812,0,0,1-.819.8h-3.52v4.91a0.82,0.82,0,0,1-.82.81H389.459a0.819,0.819,0,0,1-.819-0.81v-20.18a0.812,0.812,0,0,1,.819-0.81H420.2m0-1.6H389.459a2.436,2.436,0,0,0-2.459,2.41v20.18a2.436,2.436,0,0,0,2.459,2.41H420.2a2.437,2.437,0,0,0,2.46-2.41v-3.31h1.88a2.428,2.428,0,0,0,2.459-2.4v-8.76a2.437,2.437,0,0,0-2.459-2.41h-1.88v-3.3a2.436,2.436,0,0,0-2.46-2.41h0Zm-19.523,12.69h4.027l-2.645,5.51,7.486-6.87h-4l1.876-4.53Z" transform="translate(-387 -5731)"></path></svg> 