<?xml version="1.0" encoding="UTF-8"?> <svg xmlns="http://www.w3.org/2000/svg" width="35" height="31" viewBox="0 0 35 31"><metadata><?xpacket begin="﻿" id="W5M0MpCehiHzreSzNTczkc9d"?><?xpacket end="w"?></metadata><defs><style> .cls-1 { fill: #43b02a; fill-rule: evenodd; } </style></defs><path id="white-electronics-ns-dock" class="cls-1" d="M745,5759H710v-17.41a0.738,0.738,0,0,1,1.476,0v15.95h32.048v-16.01a0.738,0.738,0,0,1,1.476,0V5759Zm-18.239-17.94v-12.33a0.739,0.739,0,0,1,1.477,0v12.33h5.536a1.157,1.157,0,0,1,1.309,1.09,1.4,1.4,0,0,1-.368.9l-5.979,7.04a1.592,1.592,0,0,1-2.474,0l-5.981-7.04a1.4,1.4,0,0,1-.366-0.9,1.158,1.158,0,0,1,1.308-1.09h5.538Zm-5,1.46,5.632,6.64a0.123,0.123,0,0,0,.211,0l5.63-6.64H721.765Z" transform="translate(-710 -5728)"></path></svg> 