<?xml version="1.0" encoding="UTF-8"?> <svg xmlns="http://www.w3.org/2000/svg" width="37" height="40" viewBox="0 0 37 40"><metadata><?xpacket begin="﻿" id="W5M0MpCehiHzreSzNTczkc9d"?><?xpacket end="w"?></metadata><defs><style> .cls-1 { fill: #43b02a; fill-rule: evenodd; } </style></defs><path id="white-electronics-ns-usb" class="cls-1" d="M1029,5603.96a2.832,2.832,0,0,0-2.8-2.85h-2.15v-9.89c0-3.98-3.6-7.22-8.03-7.22s-8.03,3.24-8.03,7.22l-0.01,14.58h0v10.98a5.879,5.879,0,0,1-11.739,0V5596.5h0.938a1.667,1.667,0,0,0,1.656-1.68v-7.58H997.7v-2.73h-4.557v2.73H992v7.58a1.667,1.667,0,0,0,1.657,1.68h0.927v20.28a7.534,7.534,0,0,0,15.055,0v-11.44h0v-14.12c0-3.06,2.86-5.54,6.38-5.54s6.38,2.48,6.38,5.54v9.89h-2.15a2.826,2.826,0,0,0-2.8,2.85v12.8h1.92v6.3h7.7v-6.3H1029v-12.8h0Zm-6.77,17.22h-1.2v-2.2h1.2v2.2Zm3.19,0h-1.2v-2.2h1.2v2.2Zm1.92-6.11h-8.23v-11.11a1.15,1.15,0,0,1,1.14-1.16h5.95a1.15,1.15,0,0,1,1.14,1.16v11.11h0Z" transform="translate(-992 -5584)"></path></svg> 