<?xml version="1.0" encoding="UTF-8"?> <svg xmlns="http://www.w3.org/2000/svg" width="44" height="36" viewBox="0 0 44 36"><metadata><?xpacket begin="﻿" id="W5M0MpCehiHzreSzNTczkc9d"?><?xpacket end="w"?></metadata><defs><style> .cls-1 { fill: #43b02a; fill-rule: evenodd; } </style></defs><path id="white-electronics-ns-tv" class="cls-1" d="M1028.71,5726H991.289a3.243,3.243,0,0,0-3.289,3.19v23.97a3.243,3.243,0,0,0,3.289,3.19h14.791a9.539,9.539,0,0,1-.6,3.53h-2.55a1.06,1.06,0,1,0,0,2.12h14.14a1.06,1.06,0,1,0,0-2.12h-2.55a9.539,9.539,0,0,1-.6-3.53h14.79a3.247,3.247,0,0,0,3.29-3.19v-23.97A3.247,3.247,0,0,0,1028.71,5726Zm1.58,27.16a1.554,1.554,0,0,1-1.58,1.53H991.289a1.555,1.555,0,0,1-1.583-1.53v-2.08h40.584v2.08h0Zm-40.583-3.73v-20.24a1.563,1.563,0,0,1,1.583-1.54h37.42a1.562,1.562,0,0,1,1.58,1.54v20.24H989.707Z" transform="translate(-988 -5726)"></path></svg> 