<?xml version="1.0" encoding="UTF-8"?> <svg xmlns="http://www.w3.org/2000/svg" width="18" height="34" viewBox="0 0 18 34"><metadata><?xpacket begin="﻿" id="W5M0MpCehiHzreSzNTczkc9d"?><?xpacket end="w"?></metadata><defs><style> .cls-1 { fill: #aad0eb; fill-rule: evenodd; } </style></defs><path id="gl-modern-design" class="cls-1" d="M1010.25,3830.86h2.1v-6.27h-2.1v-1.43l3.75-6.93-9-16.23-9,16.23,3.749,6.93v1.43h-2.1v6.27h2.1V3834h10.5v-3.14Zm-5.25-16.78a1.565,1.565,0,1,1-1.58,1.56A1.573,1.573,0,0,1,1005,3814.08Zm-7.8,2.16,7.274-13.13v9.98a2.635,2.635,0,1,0,1.05,0v-9.98l7.28,13.13-3.6,6.65v1.7h-8.4v-1.7Zm1.5,13.58v-4.18h12.6v4.18H998.7Zm10.5,3.13h-8.4v-2.09h8.4v2.09Z" transform="translate(-996 -3800)"></path></svg> 